<?xml version="1.0" standalone="no"?>
<!DOCTYPE svg PUBLIC "-//W3C//DTD SVG 20010904//EN"
 "http://www.w3.org/TR/2001/REC-SVG-20010904/DTD/svg10.dtd">
<svg version="1.0" xmlns="http://www.w3.org/2000/svg"
 width="1280.000000pt" height="780.000000pt" viewBox="0 0 1280.000000 780.000000"
 preserveAspectRatio="xMidYMid meet">
<metadata>
Created by potrace 1.15, written by Peter Selinger 2001-2017
</metadata>
<g transform="translate(0.000000,780.000000) scale(0.100000,-0.100000)"
fill="#000000" stroke="none">
<path d="M1495 7781 l-90 -17 -3 -141 -3 -141 -89 -31 c-49 -17 -93 -31 -99
-31 -5 0 -46 47 -91 105 -45 59 -85 105 -89 103 -45 -19 -181 -104 -181 -113
0 -6 18 -62 40 -124 22 -61 40 -118 40 -125 0 -13 -138 -126 -153 -126 -3 0
-56 32 -117 70 -61 39 -112 70 -114 70 -2 0 -36 -36 -76 -80 l-72 -80 39 -47
c22 -27 61 -76 87 -110 l47 -63 -52 -77 c-29 -43 -53 -80 -55 -82 -3 -3 -211
41 -255 55 -13 3 -26 -18 -58 -98 -22 -56 -37 -104 -33 -107 5 -3 56 -37 115
-75 120 -77 112 -56 78 -196 l-16 -65 -137 -14 -137 -14 -5 -41 c-3 -22 -8
-71 -11 -107 l-6 -67 33 -10 c18 -6 78 -23 133 -38 55 -15 103 -30 106 -33 4
-3 9 -46 13 -96 l6 -90 -107 -49 c-60 -27 -118 -55 -129 -62 l-22 -13 28 -98
27 -98 49 0 c27 1 92 3 144 5 l95 4 37 -84 36 -85 -105 -100 -106 -101 58 -84
c32 -47 60 -87 62 -89 2 -2 62 21 135 52 l132 57 24 -23 c13 -12 42 -43 63
-69 l40 -47 -65 -130 -66 -130 85 -66 85 -67 110 101 109 100 80 -45 c45 -26
81 -50 81 -56 0 -5 -9 -71 -21 -145 -11 -75 -17 -139 -12 -143 4 -4 50 -21
101 -37 l92 -30 51 91 c29 50 62 109 75 132 l23 40 88 -15 c48 -8 89 -15 91
-16 1 -2 15 -67 31 -146 l28 -144 106 -3 105 -3 11 53 c6 29 19 95 29 147 20
108 16 104 141 116 l66 7 68 -126 c38 -69 72 -128 76 -130 4 -3 51 11 104 31
86 31 96 38 92 57 -2 11 -11 66 -20 121 -8 55 -17 112 -20 127 -5 31 -2 33 91
84 l71 38 94 -84 c52 -46 104 -93 116 -103 21 -19 22 -18 100 43 43 35 79 66
81 70 1 3 -29 65 -68 135 -39 71 -69 132 -68 136 2 3 31 36 65 73 l62 68 108
-48 c59 -26 123 -53 140 -60 l33 -14 55 82 c30 46 55 88 55 95 0 6 -15 23 -32
38 -18 15 -68 61 -110 101 l-77 73 40 86 41 87 152 -7 153 -8 25 101 25 100
-136 60 -136 59 3 94 c2 52 5 95 7 97 2 2 66 22 144 46 77 23 143 44 146 47 5
6 -12 190 -19 197 -2 2 -69 10 -147 19 -79 8 -145 17 -147 18 -2 2 -13 44 -26
94 -26 107 -38 87 116 190 l107 71 -16 37 c-42 102 -74 154 -91 149 -9 -3 -66
-17 -127 -31 -60 -14 -117 -28 -125 -30 -10 -3 -32 22 -68 80 l-53 84 85 116
c48 63 86 118 86 122 0 4 -32 40 -71 79 l-71 72 -120 -79 -121 -78 -41 29
c-22 17 -58 45 -80 63 l-38 32 41 131 c23 71 41 134 41 140 0 14 -175 98 -188
90 -6 -3 -47 -54 -92 -111 l-80 -105 -96 35 c-53 19 -98 35 -100 35 -2 0 -5
64 -6 143 l-3 142 -99 12 c-55 7 -101 11 -104 9 -2 -3 -23 -60 -47 -128 l-43
-123 -103 -3 -104 -3 -46 128 c-28 77 -52 129 -60 129 -8 1 -54 -6 -104 -15z
m598 -800 c173 -45 323 -130 460 -260 43 -41 83 -83 87 -92 8 -14 -21 -34
-187 -129 l-196 -113 -61 33 c-33 19 -97 55 -141 80 l-80 46 -3 227 -2 227 23
0 c13 0 58 -9 100 -19z m-395 -212 l-3 -221 -139 -79 c-76 -44 -144 -79 -151
-77 -29 7 -375 214 -375 224 0 23 140 161 215 213 131 91 307 159 413 160 l42
1 -2 -221z m-617 -496 l189 -108 0 -175 0 -175 -122 -72 c-68 -39 -158 -91
-200 -117 l-77 -45 -25 77 c-68 216 -66 427 5 658 11 35 25 64 31 64 6 0 95
-48 199 -107z m1728 52 c57 -152 76 -366 46 -524 -20 -103 -53 -211 -65 -211
-5 0 -95 50 -200 111 l-190 111 0 177 0 177 183 106 c100 59 187 107 194 108
6 0 21 -25 32 -55z m-879 -72 c159 -51 242 -248 169 -403 -66 -140 -210 -207
-354 -165 -46 13 -70 28 -115 73 -67 67 -90 124 -90 222 0 201 193 337 390
273z m-383 -771 l148 -88 3 -228 2 -228 -42 7 c-128 20 -292 87 -413 168 -61
41 -245 219 -245 236 0 5 8 12 18 15 9 3 94 51 187 106 94 55 175 100 182 100
6 0 78 -40 160 -88z m931 -22 c100 -57 182 -109 182 -115 0 -17 -138 -156
-207 -208 -119 -91 -305 -173 -436 -192 l-47 -7 0 228 0 229 148 87 c81 48
154 86 162 85 9 -1 98 -49 198 -107z"/></g>
</svg>
